<svg id="logo_pia-black-no-tagline" data-name="logo/pia-black-no-tagline" xmlns="http://www.w3.org/2000/svg" xmlns:xlink="http://www.w3.org/1999/xlink" width="259.026" height="33.907" viewBox="0 0 259.026 33.907">
  <defs>
    <linearGradient id="linear-gradient" x1="0.5" y1="0.999" x2="0.5" y2="0.088" gradientUnits="objectBoundingBox">
      <stop offset="0" stop-color="#4cb649"/>
      <stop offset="1" stop-color="#78b280"/>
    </linearGradient>
    <radialGradient id="radial-gradient" cx="0.511" cy="0.552" r="0.469" gradientUnits="objectBoundingBox">
      <stop offset="0"/>
      <stop offset="0.19" stop-color="#030303"/>
      <stop offset="0.324" stop-color="#0c0c0c"/>
      <stop offset="0.44" stop-color="#1c1c1c"/>
      <stop offset="0.546" stop-color="#323232"/>
      <stop offset="0.646" stop-color="#4e4e4e"/>
      <stop offset="0.74" stop-color="#717171"/>
      <stop offset="0.831" stop-color="#9a9a9a"/>
      <stop offset="0.916" stop-color="#c9c9c9"/>
      <stop offset="0.998" stop-color="#fefefe"/>
      <stop offset="1" stop-color="#fff"/>
    </radialGradient>
    <linearGradient id="linear-gradient-2" x1="-0.488" y1="-0.665" x2="0.565" y2="0.577" gradientUnits="objectBoundingBox">
      <stop offset="0" stop-color="#23ff16"/>
      <stop offset="1" stop-color="#189a33"/>
    </linearGradient>
    <linearGradient id="linear-gradient-3" x1="1.743" y1="-1.16" x2="0.243" y2="0.843" xlink:href="#linear-gradient-2"/>
  </defs>
  <g id="Group">
    <path id="Shape" d="M27.591,12.282H26.214v-1.23a11.114,11.114,0,0,0-22.228,0v1.23H2.612A2.6,2.6,0,0,0,0,14.88V25.026a2.548,2.548,0,0,0,.308,1.524,1.649,1.649,0,0,0,1.423.486h2.21l.337,5.343c0,.013,0,.034,0,.06a1.608,1.608,0,0,0,.2.779,1.232,1.232,0,0,0,1.147.591h5.618l2.917-3.1h2.18l2.821,3.191h5.038a2.115,2.115,0,0,0,1.175-.21,1.814,1.814,0,0,0,.649-1.39c.145-1.077.179-4.024.245-5.268h2.208a1.821,1.821,0,0,0,1.412-.377A2.118,2.118,0,0,0,30.2,25.22V14.881A2.605,2.605,0,0,0,27.591,12.282Z" fill="#349334"/>
    <path id="Shape-2" data-name="Shape" d="M29.506,24.874c0,.665-.063,1.037-.228,1.208s-.487.265-1.153.263H25.586l-.008.164c-.061,1.172-.1,4.307-.251,5.4-.1.708-.28,1.008-.495,1.146a1.839,1.839,0,0,1-.985.153H18.965l-2.821-3.192H13.657L10.74,33.116H5.271a.879.879,0,0,1-.846-.418,1.263,1.263,0,0,1-.149-.6c0-.034,0-.048,0-.048v-.014l-.36-5.688H1.383c-.661,0-.976-.123-1.144-.348A2.281,2.281,0,0,1,0,24.68V14.533a2.26,2.26,0,0,1,2.264-2.251H3.987V10.706a10.766,10.766,0,0,1,21.532,0v1.576h1.724a2.258,2.258,0,0,1,2.262,2.251v10.34Z" transform="translate(0.348 0.346)" fill="#4cb649"/>
    <path id="Rectangle-path" d="M0,0H20.917V.683H0Z" transform="translate(4.667 26.411)" fill="#118011"/>
    <path id="Shape-3" data-name="Shape" d="M0,13.1V0H.348V13.1Z" transform="translate(4.319 13.558)" fill="#118011"/>
    <path id="Shape-4" data-name="Shape" d="M0,13.1V0H.349V13.1Z" transform="translate(25.584 13.558)" fill="#118011"/>
    <ellipse id="Oval" cx="7.49" cy="1.372" rx="7.49" ry="1.372" transform="translate(7.453 15.012)" fill="url(#linear-gradient)"/>
    <path id="Shape-5" data-name="Shape" d="M13.664,8.835v-2A6.832,6.832,0,0,0,0,6.832v2Z" transform="translate(8.272 4.038)" fill="#fff"/>
    <path id="Rectangle-path-2" data-name="Rectangle-path" d="M0,0H6.091V.713H0Z" transform="translate(12.224 10.787)" fill="url(#radial-gradient)"/>
    <circle id="Oval-2" data-name="Oval" cx="1.262" cy="1.262" r="1.262" transform="translate(11.565 6.507)"/>
    <circle id="Oval-3" data-name="Oval" cx="1.262" cy="1.262" r="1.262" transform="translate(16.065 6.507)"/>
    <rect id="Rectangle-path-3" data-name="Rectangle-path" width="4.584" height="3.425" transform="translate(12.651 20.485)" fill="#fff"/>
    <path id="Shape-6" data-name="Shape" d="M.544,1.771A1.685,1.685,0,0,1,2.146.523a1.687,1.687,0,0,1,1.6,1.247h.544A2.217,2.217,0,0,0,2.146,0,2.216,2.216,0,0,0,0,1.771Z" transform="translate(12.806 18.366)" fill="#fff"/>
    <path id="Shape-7" data-name="Shape" d="M2.65.392c.123,0,.235,0,.342-.01V0A4.588,4.588,0,0,1,2.3.042H.093C.059.661.035,1.7,0,2.719H.359c.03-.9.053-1.78.081-2.327Z" transform="translate(26.17 26.995)" fill="#118011"/>
    <path id="Shape-8" data-name="Shape" d="M2.632.19V0c-.108.005-.221.008-.342.01H.081C.052.557.029,1.434,0,2.336H.511A2.133,2.133,0,0,0,2.632.19Z" transform="translate(26.532 27.377)" fill="url(#linear-gradient-2)"/>
    <path id="Shape-9" data-name="Shape" d="M3.072.107H.861A2.793,2.793,0,0,1,0,0V.445A3.837,3.837,0,0,0,.458.468H2.669l.147,2.315h.426Z" transform="translate(0.869 26.93)" fill="#118011"/>
    <path id="Shape-10" data-name="Shape" d="M.458.023A4.072,4.072,0,0,1,0,0V.192A2.133,2.133,0,0,0,2.119,2.338h.7L2.668.023Z" transform="translate(0.869 27.376)" fill="url(#linear-gradient-3)"/>
  </g>
  <g id="Group_7" data-name="Group 7" transform="translate(35.078 5.4)">
    <path id="Shape-11" data-name="Shape" d="M0,16.338V.215H2.884l.108,1.141A3.659,3.659,0,0,1,5.942,0,3.944,3.944,0,0,1,9.289,1.593a7.176,7.176,0,0,1,1.194,4.391v.162h0a6.98,6.98,0,0,1-1.223,4.311,3.915,3.915,0,0,1-3.3,1.619A3.626,3.626,0,0,1,3.11,10.848v5.49Z" transform="translate(0 6.662)" fill="#22252e"/>
    <path id="Shape-12" data-name="Shape" d="M6.543,3.133a8.5,8.5,0,0,0-1.119-.086A2.279,2.279,0,0,0,3.11,4.242v7.619H0V.216H2.939L3.024,1.6A2.883,2.883,0,0,1,5.618,0a3.263,3.263,0,0,1,.968.14Z" transform="translate(12.739 6.662)" fill="#22252e"/>
    <path id="Shape-13" data-name="Shape" d="M.183,16.262V4.616H3.3V16.262Zm.3-13.5A1.528,1.528,0,0,1,0,1.6,1.531,1.531,0,0,1,.468.452,1.758,1.758,0,0,1,1.743,0a1.762,1.762,0,0,1,1.27.452A1.522,1.522,0,0,1,3.487,1.6a1.527,1.527,0,0,1-.479,1.162,1.769,1.769,0,0,1-1.265.452A1.765,1.765,0,0,1,.479,2.766Z" transform="translate(21.088 2.262)" fill="#22252e"/>
    <path id="Shape-14" data-name="Shape" d="M5.413,7.846,7.576,0h3.25L6.9,11.645H3.928L0,0H3.25Z" transform="translate(26.229 6.878)" fill="#22252e"/>
    <path id="Shape-15" data-name="Shape" d="M1.125,11.086A3.183,3.183,0,0,1,0,8.589,3.293,3.293,0,0,1,1.372,5.748a6.773,6.773,0,0,1,3.966-1H6.769V4.08a1.926,1.926,0,0,0-.414-1.291A1.633,1.633,0,0,0,5.047,2.3a1.858,1.858,0,0,0-1.233.376,1.281,1.281,0,0,0-.446,1.033H.257A3.127,3.127,0,0,1,.882,1.841,4.117,4.117,0,0,1,2.647.49,6.424,6.424,0,0,1,5.209,0,5.085,5.085,0,0,1,8.626,1.081,3.785,3.785,0,0,1,9.89,4.121V9.169a5.574,5.574,0,0,0,.463,2.507v.182H7.211v0A3.46,3.46,0,0,1,6.9,10.818,3.766,3.766,0,0,1,3.96,12.077,4.129,4.129,0,0,1,1.125,11.086Z" transform="translate(38.128 6.661)" fill="#22252e"/>
    <path id="Shape-16" data-name="Shape" d="M4.812,0V2.862H6.8V5.144H4.812v5.812a1.391,1.391,0,0,0,.247.926,1.241,1.241,0,0,0,.947.28,5,5,0,0,0,.914-.075v2.357a6.421,6.421,0,0,1-1.884.28q-3.273,0-3.336-3.3V5.145H0V2.862H1.7V0Z" transform="translate(49.651 4.016)" fill="#22252e"/>
    <path id="Shape-17" data-name="Shape" d="M1.609,10.5A5.583,5.583,0,0,1,0,6.317v-.3A7.042,7.042,0,0,1,.678,2.878,4.984,4.984,0,0,1,2.6.747,5.391,5.391,0,0,1,5.434,0,4.839,4.839,0,0,1,9.2,1.506a6.125,6.125,0,0,1,1.372,4.273v1.27H3.154a2.889,2.889,0,0,0,.909,1.83,2.75,2.75,0,0,0,1.922.689,3.358,3.358,0,0,0,2.808-1.3l1.528,1.71a4.667,4.667,0,0,1-1.894,1.545,6.212,6.212,0,0,1-2.648.554A5.714,5.714,0,0,1,1.609,10.5Z" transform="translate(58.098 6.664)" fill="#22252e"/>
    <path id="Shape-18" data-name="Shape" d="M.226,15.875V4.23H1.518V15.875Zm.011-14.4A.847.847,0,0,1,0,.866.867.867,0,0,1,.237.252.844.844,0,0,1,.882,0a.862.862,0,0,1,.652.252.853.853,0,0,1,.242.615.832.832,0,0,1-.242.61.872.872,0,0,1-.652.247A.852.852,0,0,1,.237,1.476Z" transform="translate(71.17 2.649)" fill="#22252e"/>
    <path id="Shape-19" data-name="Shape" d="M1.227.216l.043,1.991A4.627,4.627,0,0,1,2.907.566,4.243,4.243,0,0,1,5.07,0,3.494,3.494,0,0,1,7.857,1.055a4.757,4.757,0,0,1,.926,3.164V11.86H7.5V4.208A3.557,3.557,0,0,0,6.84,1.884a2.593,2.593,0,0,0-2.082-.764,3.264,3.264,0,0,0-2.115.747A4.383,4.383,0,0,0,1.281,3.885v7.974H0V.216Z" transform="translate(76.516 6.662)" fill="#22252e"/>
    <path id="Shape-20" data-name="Shape" d="M3.431,0V2.981H5.842V4.036H3.431V11.8a2.428,2.428,0,0,0,.35,1.444,1.355,1.355,0,0,0,1.168.474,8,8,0,0,0,1.044-.108l.054,1.045a4.218,4.218,0,0,1-1.377.181,2.3,2.3,0,0,1-1.926-.77,3.623,3.623,0,0,1-.6-2.265V4.036H0V2.981H2.142V0Z" transform="translate(87.525 3.897)" fill="#22252e"/>
    <path id="Shape-21" data-name="Shape" d="M2.534,11.345A4.986,4.986,0,0,1,.667,9.305,6.365,6.365,0,0,1,0,6.372V5.909A6.848,6.848,0,0,1,.651,2.884,5.194,5.194,0,0,1,2.464.77,4.47,4.47,0,0,1,4.982,0,4.206,4.206,0,0,1,8.346,1.448,5.874,5.874,0,0,1,9.588,5.4v.721H1.28v.248a4.878,4.878,0,0,0,1.136,3.3,3.611,3.611,0,0,0,2.857,1.319A4.206,4.206,0,0,0,7.1,10.612a4.036,4.036,0,0,0,1.436-1.2l.808.613a4.7,4.7,0,0,1-4.123,2.055A5.062,5.062,0,0,1,2.534,11.345Z" transform="translate(95.658 6.662)" fill="#22252e"/>
    <path id="Shape-22" data-name="Shape" d="M5.382,1.314a4.863,4.863,0,0,0-.872-.075,3.15,3.15,0,0,0-2.04.672A3.682,3.682,0,0,0,1.281,3.865v8H0V.216H1.259L1.28,2.067A3.425,3.425,0,0,1,4.562,0a2.123,2.123,0,0,1,.85.14Z" transform="translate(108.082 6.662)" fill="#22252e"/>
    <path id="Shape-23" data-name="Shape" d="M1.227.216l.043,1.991A4.627,4.627,0,0,1,2.907.566,4.243,4.243,0,0,1,5.07,0,3.494,3.494,0,0,1,7.857,1.055a4.757,4.757,0,0,1,.926,3.164V11.86H7.5V4.208A3.557,3.557,0,0,0,6.84,1.884a2.593,2.593,0,0,0-2.082-.764,3.264,3.264,0,0,0-2.115.747A4.383,4.383,0,0,0,1.281,3.885v7.974H0V.216Z" transform="translate(115.829 6.662)" fill="#22252e"/>
    <path id="Shape-24" data-name="Shape" d="M2.534,11.345A4.986,4.986,0,0,1,.667,9.305,6.365,6.365,0,0,1,0,6.372V5.909A6.848,6.848,0,0,1,.651,2.884,5.194,5.194,0,0,1,2.464.77,4.47,4.47,0,0,1,4.982,0,4.206,4.206,0,0,1,8.346,1.448,5.874,5.874,0,0,1,9.588,5.4v.721H1.28v.248a4.878,4.878,0,0,0,1.136,3.3,3.611,3.611,0,0,0,2.857,1.319A4.206,4.206,0,0,0,7.1,10.612a4.036,4.036,0,0,0,1.436-1.2l.808.613a4.7,4.7,0,0,1-4.123,2.055A5.062,5.062,0,0,1,2.534,11.345Z" transform="translate(127.558 6.662)" fill="#22252e"/>
    <path id="Shape-25" data-name="Shape" d="M3.431,0V2.981H5.842V4.036H3.431V11.8a2.428,2.428,0,0,0,.35,1.444,1.355,1.355,0,0,0,1.168.474,8,8,0,0,0,1.044-.108l.054,1.045a4.218,4.218,0,0,1-1.377.181,2.3,2.3,0,0,1-1.926-.77,3.623,3.623,0,0,1-.6-2.265V4.036H0V2.981H2.142V0Z" transform="translate(138.555 3.897)" fill="#22252e"/>
    <path id="Shape-26" data-name="Shape" d="M1.039,11.137A3.052,3.052,0,0,1,0,8.77,3.116,3.116,0,0,1,1.416,6.079,6.8,6.8,0,0,1,5.36,5.088H7.7V3.766A2.554,2.554,0,0,0,6.926,1.8a3.183,3.183,0,0,0-2.244-.716,3.506,3.506,0,0,0-2.228.689A2.044,2.044,0,0,0,1.57,3.433L.279,3.422a2.99,2.99,0,0,1,1.291-2.4A4.968,4.968,0,0,1,4.747,0,4.532,4.532,0,0,1,7.819.974,3.5,3.5,0,0,1,8.975,3.692V9.2a6.835,6.835,0,0,0,.355,2.53v.128H7.953v0a6.093,6.093,0,0,1-.248-1.624,4.486,4.486,0,0,1-1.727,1.361,5.285,5.285,0,0,1-2.222.479A3.9,3.9,0,0,1,1.039,11.137Z" transform="translate(146.794 6.666)" fill="#22252e"/>
    <path id="Shape-27" data-name="Shape" d="M4.971,10.988a3.4,3.4,0,0,0,2.255-.759,2.672,2.672,0,0,0,.985-1.964H9.449a3.646,3.646,0,0,1-.667,1.943,4.182,4.182,0,0,1-1.63,1.372,4.92,4.92,0,0,1-2.18.495A4.5,4.5,0,0,1,1.34,10.482,6.438,6.438,0,0,1,0,6.2V5.811A7.28,7.28,0,0,1,.6,2.765,4.639,4.639,0,0,1,2.33.721,4.765,4.765,0,0,1,4.961,0,4.492,4.492,0,0,1,8.119,1.141a4.159,4.159,0,0,1,1.329,3H8.21a3.168,3.168,0,0,0-.985-2.206A3.191,3.191,0,0,0,4.96,1.1,3.212,3.212,0,0,0,2.253,2.357a5.7,5.7,0,0,0-.963,3.53v.376a5.576,5.576,0,0,0,.963,3.477A3.238,3.238,0,0,0,4.971,10.988Z" transform="translate(158.866 6.664)" fill="#22252e"/>
    <path id="Shape-28" data-name="Shape" d="M4.971,10.988a3.4,3.4,0,0,0,2.255-.759,2.672,2.672,0,0,0,.985-1.964H9.449a3.646,3.646,0,0,1-.667,1.943,4.182,4.182,0,0,1-1.63,1.372,4.92,4.92,0,0,1-2.18.495A4.5,4.5,0,0,1,1.34,10.482,6.438,6.438,0,0,1,0,6.2V5.811A7.28,7.28,0,0,1,.6,2.765,4.639,4.639,0,0,1,2.33.721,4.765,4.765,0,0,1,4.961,0,4.492,4.492,0,0,1,8.119,1.141a4.159,4.159,0,0,1,1.329,3H8.21a3.168,3.168,0,0,0-.985-2.206A3.191,3.191,0,0,0,4.96,1.1,3.212,3.212,0,0,0,2.253,2.357a5.7,5.7,0,0,0-.963,3.53v.376a5.576,5.576,0,0,0,.963,3.477A3.238,3.238,0,0,0,4.971,10.988Z" transform="translate(170.551 6.664)" fill="#22252e"/>
    <path id="Shape-29" data-name="Shape" d="M2.534,11.345A4.986,4.986,0,0,1,.667,9.305,6.365,6.365,0,0,1,0,6.372V5.909A6.848,6.848,0,0,1,.651,2.884,5.194,5.194,0,0,1,2.464.77,4.47,4.47,0,0,1,4.982,0,4.206,4.206,0,0,1,8.346,1.448,5.874,5.874,0,0,1,9.588,5.4v.721H1.28v.248a4.878,4.878,0,0,0,1.136,3.3,3.611,3.611,0,0,0,2.857,1.319A4.206,4.206,0,0,0,7.1,10.612a4.036,4.036,0,0,0,1.436-1.2l.808.613a4.7,4.7,0,0,1-4.123,2.055A5.062,5.062,0,0,1,2.534,11.345Z" transform="translate(182.193 6.662)" fill="#22252e"/>
    <path id="Shape-30" data-name="Shape" d="M7.564,8.9a1.837,1.837,0,0,0-.77-1.539,5.927,5.927,0,0,0-2.319-.909A10.433,10.433,0,0,1,2.07,5.7,3.2,3.2,0,0,1,.8,4.66,2.593,2.593,0,0,1,.386,3.175,2.772,2.772,0,0,1,1.537.9,4.649,4.649,0,0,1,4.486,0,4.794,4.794,0,0,1,7.613.963,3.093,3.093,0,0,1,8.791,3.477H7.5a2.088,2.088,0,0,0-.855-1.7A3.365,3.365,0,0,0,4.486,1.1a3.361,3.361,0,0,0-2.039.566,1.743,1.743,0,0,0-.77,1.469,1.588,1.588,0,0,0,.641,1.351,6.769,6.769,0,0,0,2.335.877,10.982,10.982,0,0,1,2.54.85A3.291,3.291,0,0,1,8.447,7.3a2.784,2.784,0,0,1,.409,1.539,2.79,2.79,0,0,1-1.189,2.357,5.077,5.077,0,0,1-3.1.883,5.219,5.219,0,0,1-3.3-.984A3.03,3.03,0,0,1,0,8.6H1.292a2.24,2.24,0,0,0,.952,1.76,3.894,3.894,0,0,0,2.319.629A3.665,3.665,0,0,0,6.738,10.4,1.786,1.786,0,0,0,7.564,8.9Z" transform="translate(194.03 6.664)" fill="#22252e"/>
    <path id="Shape-31" data-name="Shape" d="M7.564,8.9a1.837,1.837,0,0,0-.77-1.539,5.927,5.927,0,0,0-2.319-.909A10.433,10.433,0,0,1,2.07,5.7,3.2,3.2,0,0,1,.8,4.66,2.593,2.593,0,0,1,.386,3.175,2.772,2.772,0,0,1,1.537.9,4.649,4.649,0,0,1,4.486,0,4.794,4.794,0,0,1,7.613.963,3.093,3.093,0,0,1,8.791,3.477H7.5a2.088,2.088,0,0,0-.855-1.7A3.365,3.365,0,0,0,4.486,1.1a3.361,3.361,0,0,0-2.039.566,1.743,1.743,0,0,0-.77,1.469,1.588,1.588,0,0,0,.641,1.351,6.769,6.769,0,0,0,2.335.877,10.982,10.982,0,0,1,2.54.85A3.291,3.291,0,0,1,8.447,7.3a2.784,2.784,0,0,1,.409,1.539,2.79,2.79,0,0,1-1.189,2.357,5.077,5.077,0,0,1-3.1.883,5.219,5.219,0,0,1-3.3-.984A3.03,3.03,0,0,1,0,8.6H1.292a2.24,2.24,0,0,0,.952,1.76,3.894,3.894,0,0,0,2.319.629A3.665,3.665,0,0,0,6.738,10.4,1.784,1.784,0,0,0,7.564,8.9Z" transform="translate(205.52 6.664)" fill="#22252e"/>
    <path id="Shape-32" data-name="Shape" d="M0,3.414V0H1.131a1.341,1.341,0,0,1,.887.262.943.943,0,0,1,.31.764.918.918,0,0,1-.172.556,1.025,1.025,0,0,1-.48.354l.8,1.449v.027H2l-.74-1.381h-.8V3.414Z" transform="translate(219.255 1.852)" fill="#22252e"/>
    <path id="Shape-33" data-name="Shape" d="M0,3.61A3.609,3.609,0,1,1,3.609,7.219,3.614,3.614,0,0,1,0,3.61Z" transform="translate(216.73)" fill="#22252e"/>
  </g>
</svg>
